<?xml version="1.0" standalone="no"?>
<!DOCTYPE svg PUBLIC "-//W3C//DTD SVG 20010904//EN"
 "http://www.w3.org/TR/2001/REC-SVG-20010904/DTD/svg10.dtd">
<svg version="1.0" xmlns="http://www.w3.org/2000/svg"
 width="1024.000000pt" height="1024.000000pt" viewBox="0 0 1024.000000 1024.000000"
 preserveAspectRatio="xMidYMid meet">

<g transform="translate(0.000000,1024.000000) scale(0.100000,-0.100000)"
fill="#000000" stroke="none">
<path d="M5135 8940 c-322 -36 -626 -120 -868 -242 -133 -66 -303 -177 -290
-188 4 -4 41 -20 80 -36 40 -15 70 -30 67 -33 -14 -14 -201 17 -289 48 -61 22
-141 69 -170 101 -10 11 -22 20 -26 20 -5 0 -15 -24 -24 -52 -23 -78 -21 -227
4 -308 11 -35 18 -66 16 -69 -3 -2 -45 36 -94 86 l-90 91 -6 -62 c-13 -121 36
-331 100 -425 18 -28 31 -51 29 -51 -15 0 -97 66 -158 126 l-69 68 6 -94 c7
-107 25 -176 71 -270 48 -98 99 -170 171 -241 l65 -65 -12 -39 c-7 -24 -12
-105 -12 -200 0 -139 4 -175 27 -277 16 -65 36 -142 47 -173 19 -55 19 -56 -1
-73 -36 -30 -100 -140 -120 -203 -60 -193 17 -445 183 -594 51 -46 191 -121
237 -127 22 -3 27 -13 51 -113 46 -186 106 -316 214 -468 l56 -77 0 -149 c0
-139 -1 -150 -19 -156 -17 -5 -126 -130 -227 -257 -16 -21 -33 -38 -39 -38 -5
1 -102 -45 -215 -102 -113 -57 -206 -104 -208 -104 -1 -1 2 -13 8 -28 12 -34
21 -1073 13 -1539 l-6 -327 -48 0 -49 0 -2 908 -3 907 -22 41 c-33 61 -70 101
-122 132 l-46 27 -628 3 -629 3 -51 -24 c-63 -29 -128 -91 -158 -149 -33 -63
-39 -210 -10 -255 41 -65 109 -85 143 -43 14 17 18 40 18 105 0 69 4 88 23
116 33 49 80 70 152 67 l59 -3 11 -80 c14 -95 35 -139 78 -165 30 -19 52 -20
342 -20 275 0 314 2 345 18 47 23 78 88 86 180 l7 72 65 0 c51 0 73 -5 98 -22
68 -47 64 25 64 -1163 l0 -1075 -665 0 -665 0 0 856 c0 951 4 896 -66 929 -43
20 -66 19 -92 -6 l-22 -20 2 -1042 3 -1042 27 -51 c37 -71 103 -135 174 -170
l59 -29 3130 0 3130 0 58 24 c120 48 216 153 258 283 28 88 29 189 5 428 -9
85 -18 175 -21 200 -18 174 -38 385 -60 630 -14 157 -27 310 -30 340 -6 68
-20 80 -98 80 l-60 0 8 52 c20 147 23 184 20 318 -3 176 -24 269 -95 415 -72
148 -164 249 -303 334 -21 13 -37 26 -35 30 2 3 25 49 52 101 63 123 234 566
222 577 -3 3 -45 0 -93 -7 -92 -13 -244 -57 -302 -89 l-34 -18 -39 80 c-51
106 -145 250 -161 244 -16 -5 -130 -176 -169 -252 -17 -33 -32 -61 -33 -63 -1
-2 -18 6 -37 17 -66 40 -264 91 -349 91 -35 0 -40 -3 -34 -17 3 -10 26 -74 51
-143 72 -199 124 -328 176 -434 27 -54 48 -99 46 -100 -2 -2 -30 -20 -63 -42
-119 -78 -208 -184 -275 -327 -64 -139 -84 -236 -84 -422 -1 -152 5 -240 20
-312 l7 -33 -50 0 c-40 0 -54 -5 -73 -25 -22 -24 -24 -35 -32 -213 -13 -315
-28 -614 -35 -684 l-6 -68 -39 0 -40 0 6 390 c9 536 21 620 94 680 20 16 42
30 48 30 19 0 21 19 10 148 -8 103 -6 143 8 240 18 122 50 262 68 295 7 14 6
23 -4 32 -16 16 -500 265 -544 280 -23 8 -64 50 -146 150 -62 77 -123 144
-134 149 -18 8 -23 22 -28 75 -3 36 -3 104 0 151 6 78 10 89 44 135 58 79 116
180 151 263 32 78 78 225 79 252 0 8 4 31 10 50 9 32 15 36 61 47 160 38 322
202 385 390 59 175 17 387 -102 514 l-24 25 29 115 c59 225 73 316 77 484 4
174 -5 240 -51 361 -38 102 -104 199 -194 289 l-81 80 0 68 c0 91 -27 346 -46
432 -36 160 -131 301 -257 379 -160 100 -329 136 -662 141 -126 2 -266 0 -310
-5z m605 -205 c227 -41 352 -125 418 -281 27 -64 60 -291 66 -461 l5 -132 -29
-6 c-16 -3 -34 -13 -41 -21 -19 -23 -29 -16 -30 24 -3 90 -17 95 -18 6 -1 -68
-5 -95 -16 -104 -8 -7 -15 -23 -15 -36 0 -18 -4 -22 -17 -17 -9 4 -14 2 -10
-3 3 -6 -10 -10 -31 -11 -31 -1 -33 1 -14 8 36 14 25 18 -19 7 -46 -12 -58
-31 -36 -56 14 -16 14 -17 -7 -18 -19 -1 -25 8 -41 65 -81 286 -322 514 -671
634 -204 71 -417 106 -764 127 -102 6 -189 13 -195 14 -30 8 193 116 333 161
127 40 309 82 442 100 69 9 132 18 140 20 44 11 463 -4 550 -20z m-1600 -429
c63 -9 228 -28 365 -41 410 -41 578 -76 757 -155 78 -34 178 -94 178 -105 0
-3 -28 11 -62 30 -147 80 -316 116 -743 160 -291 30 -406 47 -531 80 -75 19
-164 58 -164 70 0 2 19 -3 43 -10 23 -7 94 -20 157 -29z m-352 -360 c40 -27
70 -51 67 -54 -7 -8 -113 60 -143 92 -31 33 -24 30 76 -38z m2439 -212 c3 -8
-1 -22 -9 -31 -14 -13 -16 -13 -21 1 -4 10 -1 13 9 9 8 -3 14 1 14 10 0 9 -8
18 -17 20 -17 4 -17 5 0 6 10 0 20 -6 24 -15z m-124 -54 c7 0 6 -4 -3 -10 -9
-6 -19 -5 -28 2 -10 9 -12 8 -10 -3 2 -9 -4 -13 -14 -11 -10 2 -18 -2 -18 -8
0 -5 -12 -10 -27 -10 -20 0 -24 3 -14 9 8 5 10 14 5 22 -6 12 -5 12 9 0 11 -8
17 -9 17 -3 0 6 6 9 14 6 8 -3 17 0 21 6 4 6 14 9 22 6 8 -3 20 -6 26 -6z
m-2295 -127 c59 -24 91 -41 72 -38 -40 7 -205 84 -235 110 -11 9 -4 7 18 -5
21 -13 87 -43 145 -67z m2687 -35 c65 -121 84 -227 65 -353 -7 -43 -16 -88
-21 -99 -6 -16 -7 -12 -3 14 6 45 -10 190 -32 277 -9 37 -36 112 -60 167 -23
55 -40 104 -37 109 8 13 47 -37 88 -115z m-457 -148 c42 -67 142 -361 166
-487 32 -171 41 -487 17 -648 -6 -44 -21 -147 -32 -230 -68 -516 -158 -745
-389 -988 -201 -213 -475 -308 -754 -263 -164 27 -289 88 -435 211 -87 74 -83
70 -167 181 -112 148 -182 319 -229 554 -31 155 -94 596 -102 710 -6 99 11
334 33 450 19 101 83 294 127 379 l32 64 275 -4 c151 -2 401 -3 555 -2 253 2
300 5 490 33 116 17 244 37 285 44 103 19 113 19 128 -4z m-2196 -157 c11 -13
17 -52 22 -133 3 -63 14 -166 24 -227 10 -62 15 -113 11 -113 -15 0 -71 166
-85 250 -17 99 -16 240 1 240 7 0 19 -8 27 -17z m-8 -890 c15 -32 52 -94 81
-138 28 -44 57 -93 63 -110 13 -39 36 -215 28 -222 -11 -11 -119 71 -157 120
-49 62 -78 126 -91 203 -9 54 -8 71 11 133 12 39 25 71 29 71 4 0 21 -26 36
-57z m2747 -7 c6 -30 10 -89 7 -132 -6 -92 -35 -159 -100 -230 -43 -47 -136
-119 -143 -112 -6 6 21 228 30 253 5 11 31 52 59 90 61 82 116 171 116 186 0
28 20 -8 31 -55z m1099 -1231 c0 -14 -11 -56 -23 -93 -13 -37 -30 -98 -37
-135 -12 -60 -16 -67 -27 -51 -7 10 -13 31 -13 48 0 28 -1 29 -15 10 -14 -18
-14 -18 -15 8 0 34 37 120 81 187 38 57 49 63 49 26z m-314 -179 c52 -24 164
-122 164 -143 0 -20 -44 -4 -63 22 -10 14 -23 23 -28 20 -5 -4 -19 3 -31 14
-39 37 -41 22 -3 -20 60 -66 141 -267 117 -291 -13 -13 -50 36 -102 137 -22
44 -38 69 -35 55 5 -23 -34 53 -56 109 -5 13 -11 22 -14 20 -5 -6 28 -121 54
-189 21 -53 21 -54 2 -30 -24 30 -62 128 -95 247 l-24 85 31 -6 c17 -3 54 -17
83 -30z m714 27 c0 -5 -16 -21 -35 -38 -19 -16 -35 -35 -35 -41 0 -16 -32 -78
-44 -86 -6 -4 -8 -8 -4 -8 4 0 4 -9 0 -19 -4 -11 -11 -20 -16 -20 -10 1 -26
-21 -26 -36 0 -5 5 -3 10 5 14 21 13 -3 -1 -34 -7 -14 -16 -23 -22 -19 -6 3
-7 1 -3 -5 8 -14 -25 -80 -52 -105 -30 -27 -66 -19 -70 16 -2 15 1 27 7 27 6
0 11 7 11 15 0 30 58 143 95 184 20 22 32 41 26 41 -22 0 -95 -114 -131 -203
-33 -83 -40 -92 -65 -95 l-28 -4 6 50 c10 89 88 220 168 283 22 17 75 47 117
65 81 35 92 39 92 27z m-3375 -257 c99 -56 198 -89 334 -112 236 -38 506 23
701 160 25 17 56 39 70 47 l25 16 3 -93 c2 -52 1 -102 -3 -113 -6 -21 -89 -78
-315 -218 -211 -131 -316 -186 -343 -179 -65 16 -520 288 -624 373 l-43 34 0
110 0 109 58 -44 c31 -24 93 -64 137 -90z m-345 -189 c0 -7 -18 -34 -40 -61
-45 -54 -46 -58 -25 -76 16 -13 21 0 6 16 -6 5 -4 13 3 20 19 18 17 -47 -3
-66 -13 -13 -14 -13 -8 3 6 16 -7 25 -16 10 -2 -5 -2 -3 -1 4 2 7 -1 15 -7 18
-5 4 -8 2 -7 -3 2 -5 -8 -18 -21 -29 -23 -19 -23 -20 -7 -51 15 -30 36 -43 36
-23 0 5 29 45 65 89 36 45 63 87 62 94 -2 7 -2 10 0 7 2 -4 12 -5 21 -3 10 3
42 -14 74 -38 86 -64 323 -211 445 -275 60 -31 110 -58 112 -59 2 -2 -23 -32
-56 -66 -89 -94 -365 -424 -422 -506 -26 -37 -30 -36 -53 10 -38 74 -321 657
-345 710 l-25 57 88 101 c49 56 93 108 99 116 12 17 25 18 25 1z m1665 -7 c3
-6 -1 -7 -9 -4 -18 7 -21 14 -7 14 6 0 13 -4 16 -10z m-51 -35 c-5 -11 0 -14
17 -13 14 2 24 -2 24 -9 0 -7 -4 -13 -10 -14 -5 -1 -18 -5 -27 -10 -15 -8 -13
-13 13 -42 17 -17 45 -52 62 -77 17 -25 35 -48 40 -51 6 -5 7 -41 2 -95 -5
-49 -9 -102 -11 -119 -2 -35 -18 -71 -154 -350 l-102 -209 -22 29 c-23 33 -36
48 -253 315 -83 102 -167 203 -187 224 -20 21 -35 40 -34 41 5 3 198 115 248
143 25 14 110 68 190 120 106 70 153 95 173 93 17 -1 26 3 22 9 -3 5 -3 15 0
20 9 15 15 12 9 -5z m91 -5 c10 -11 16 -20 13 -20 -3 0 -13 9 -23 20 -10 11
-16 20 -13 20 3 0 13 -9 23 -20z m-1681 -18 c2 -4 -4 -13 -15 -20 -11 -7 -19
-8 -19 -2 0 5 5 10 11 10 5 0 7 5 4 10 -3 6 -2 10 4 10 5 0 12 -4 15 -8z
m1731 -48 c15 -19 25 -37 22 -40 -2 -2 -16 14 -31 36 -33 50 -28 52 9 4z
m1690 -45 c61 -15 99 -32 160 -74 97 -65 133 -100 112 -108 -9 -3 -37 14 -68
42 -55 48 -87 69 -117 76 -9 2 -27 7 -40 11 -19 5 -34 -6 -97 -72 l-74 -79
-70 70 c-64 64 -84 77 -103 68 -3 -2 29 -39 72 -82 l78 -80 -80 -81 c-60 -60
-83 -78 -90 -68 -6 10 -10 10 -19 -2 -8 -12 -9 -10 -4 9 6 19 4 23 -8 18 -10
-4 -15 -1 -12 6 1 7 -17 30 -42 51 -37 33 -46 37 -54 25 -9 -12 -10 -12 -6 1
2 8 -2 22 -10 31 -12 15 -6 24 59 85 40 37 60 59 43 49 -48 -28 -129 -92 -150
-117 -40 -48 -131 -188 -122 -188 2 0 34 38 71 85 36 47 69 85 74 85 4 -1 16
-15 28 -33 13 -20 27 -31 38 -29 12 2 16 -1 13 -10 -2 -7 15 -34 40 -59 l44
-46 -77 -80 -77 -81 -85 69 c-83 68 -102 79 -102 59 0 -5 4 -10 8 -10 5 0 15
-11 22 -25 9 -16 16 -21 20 -14 8 12 10 11 65 -61 l35 -45 -43 -7 c-23 -3 -70
-7 -104 -7 -63 -1 -63 -1 -63 27 0 55 41 189 86 278 79 159 198 259 368 309
99 29 176 30 281 4z m-1615 -44 c14 -18 13 -19 -1 -8 -9 7 -19 10 -23 6 -4 -4
-4 1 0 10 3 10 7 17 8 15 1 -2 8 -12 16 -23z m1755 -106 l76 -82 -33 -34 c-18
-19 -52 -54 -75 -77 l-43 -43 -57 56 c-32 31 -70 66 -84 77 l-27 20 76 82 c41
45 79 82 83 82 4 0 41 -37 84 -81z m-1753 29 c-7 -7 -12 -8 -12 -2 0 14 12 26
19 19 2 -3 -1 -11 -7 -17z m-2282 -72 c0 -12 -174 -116 -194 -116 -3 0 -6 8
-5 18 0 11 30 32 92 64 103 53 107 54 107 34z m2663 -36 c111 -52 120 -59 111
-83 -4 -11 -28 -2 -112 43 -59 31 -108 65 -110 74 -2 9 -2 16 1 16 2 0 52 -22
110 -50z m-3623 5 c0 -22 -8 -43 -20 -55 -19 -19 -33 -20 -220 -20 -218 0
-243 5 -260 53 -20 60 -32 57 245 57 l255 0 0 -35z m5175 8 c13 -16 43 -65 66
-110 l43 -83 -86 -86 -86 -86 -72 73 c-40 41 -69 67 -65 59 6 -10 1 -9 -13 4
l-21 19 20 26 c11 14 48 54 81 89 l60 62 20 -25 c11 -14 24 -22 30 -19 7 4 8
2 4 -5 -4 -6 2 -27 14 -46 12 -19 18 -40 14 -47 -4 -7 -3 -10 1 -5 5 4 17 0
27 -10 17 -15 18 -15 18 8 0 17 -3 20 -9 11 -11 -18 -55 54 -46 76 3 8 -1 25
-9 38 -16 23 -31 84 -21 84 3 0 17 -12 30 -27z m-1975 13 c0 -2 -7 -17 -15
-32 -9 -18 -15 -23 -15 -12 0 9 5 20 10 23 6 4 8 11 5 16 -4 5 -1 9 4 9 6 0
11 -2 11 -4z m1614 -122 c42 -42 76 -80 76 -85 0 -12 -140 -159 -151 -159 -5
0 -18 9 -29 20 -11 11 -23 21 -27 23 -5 1 -7 6 -5 10 1 5 -2 6 -8 2 -5 -3 -10
0 -10 8 0 16 -27 30 -40 22 -4 -3 -6 5 -4 17 2 13 2 18 -2 11 -4 -9 -11 -7
-27 7 l-21 20 34 38 c52 56 134 142 136 142 1 0 36 -34 78 -76z m-3694 26 c6
-11 7 -20 2 -20 -6 0 -12 9 -15 20 -3 11 -3 20 -1 20 2 0 8 -9 14 -20z m-13
-107 c-3 -10 -5 -4 -5 12 0 17 2 24 5 18 2 -7 2 -21 0 -30z m3524 -109 c41
-41 75 -79 77 -83 3 -8 -309 -23 -316 -16 -4 3 157 175 163 175 2 0 36 -34 76
-76z m373 -1 c42 -43 76 -81 76 -85 0 -4 -60 -8 -134 -8 -73 0 -148 -3 -167
-7 l-33 -6 58 59 c32 32 69 74 83 92 14 17 29 32 33 32 5 0 43 -35 84 -77z
m281 54 c-3 -12 -1 -34 5 -47 l11 -25 -5 24 c-4 17 -2 21 6 13 7 -7 7 -20 -1
-43 -6 -18 -9 -35 -6 -37 3 -3 5 0 5 7 0 7 5 9 10 6 6 -3 10 -14 10 -25 0 -15
-10 -19 -57 -24 -69 -7 -133 -6 -133 1 0 5 151 170 158 172 1 1 0 -9 -3 -22z
m-2925 -15 c8 -9 27 -32 43 -50 l27 -34 -151 -115 c-140 -107 -153 -114 -175
-103 -32 18 -94 70 -94 80 0 5 24 26 53 47 28 21 97 73 152 115 55 43 107 78
115 78 9 0 22 -8 30 -18z m890 -40 c0 -5 -7 -17 -15 -28 -14 -18 -14 -17 -4 9
12 27 19 34 19 19z m-2019 -79 c-12 -20 -14 -14 -5 12 4 9 9 14 11 11 3 -2 0
-13 -6 -23z m1995 11 c-3 -9 -6 -18 -6 -20 0 -3 -4 -3 -10 1 -11 7 -2 35 12
35 6 0 7 -7 4 -16z m-1946 -39 c0 -5 -5 -3 -10 5 -5 8 -10 20 -10 25 0 6 5 3
10 -5 5 -8 10 -19 10 -25z m-63 -27 c16 -24 35 -54 41 -68 31 -61 51 -94 52
-85 0 5 19 -29 41 -75 23 -47 45 -87 48 -90 4 -3 22 -32 40 -65 19 -33 37 -62
40 -65 4 -3 13 -20 20 -37 15 -37 31 -43 31 -13 0 14 7 20 22 20 12 0 39 17
60 37 28 27 38 33 38 20 0 -9 -5 -17 -12 -17 -6 0 -8 -3 -4 -7 4 -4 18 5 31
19 25 27 24 41 -3 30 -14 -5 -15 -4 -2 10 11 11 17 12 22 4 5 -7 16 -1 33 19
13 17 29 35 35 42 5 7 10 16 10 21 0 5 9 21 21 36 16 21 28 26 60 24 26 -1 39
-6 39 -15 0 -8 5 -11 11 -7 8 4 9 -3 5 -22 -3 -16 -24 -130 -46 -254 -22 -124
-44 -241 -48 -260 l-8 -35 -279 -3 -280 -2 -1 32 c0 50 -27 242 -33 248 -3 3
-7 21 -7 40 -1 19 -4 58 -7 85 -13 131 -20 475 -9 475 6 0 24 -19 39 -42z
m1987 27 c3 -8 0 -14 -7 -12 -8 1 -11 -9 -10 -28 2 -22 0 -26 -7 -15 -8 12
-10 12 -10 1 0 -8 -3 -12 -6 -8 -5 5 24 77 31 77 2 0 5 -7 9 -15z m92 -147
c-9 -211 -41 -486 -77 -665 l-10 -53 -268 0 -267 0 -23 138 c-23 137 -41 235
-66 367 -9 44 -11 73 -5 79 7 7 10 1 11 -14 1 -17 3 -20 6 -7 5 18 19 23 25 9
2 -4 26 -28 53 -52 28 -25 42 -36 33 -24 -23 27 -23 31 5 44 20 10 20 10 4 -3
-15 -13 -15 -16 -2 -27 8 -7 15 -20 15 -28 0 -26 101 -122 127 -122 13 0 23 6
23 13 0 8 3 8 9 -2 7 -12 13 -12 24 -3 7 7 17 8 22 4 4 -4 6 0 3 8 -3 8 5 31
16 50 12 19 32 57 46 83 21 43 40 68 40 53 0 -11 -55 -111 -62 -114 -5 -2 -8
-11 -8 -19 0 -19 40 28 41 49 0 7 5 4 10 -7 7 -15 8 -11 3 15 -4 28 -3 32 6
20 10 -13 11 -12 6 3 -4 12 -2 17 6 15 13 -5 40 24 51 54 3 9 -1 24 -10 35
-11 14 -13 14 -10 2 3 -9 -1 -16 -8 -16 -13 0 63 160 86 182 17 15 1 -35 -20
-65 -10 -14 -21 -35 -25 -48 -4 -12 -12 -22 -17 -22 -6 0 -7 -5 -4 -10 9 -14
45 7 45 25 0 8 5 14 10 13 6 -2 18 10 28 27 9 16 25 37 35 46 9 9 17 23 17 32
0 8 4 17 8 19 4 2 18 18 31 36 40 58 45 44 37 -120z m-2189 90 c-3 -7 -5 -2
-5 12 0 14 2 19 5 13 2 -7 2 -19 0 -25z m12 -122 c-5 -6 -8 12 -8 45 l2 54 7
-45 c4 -25 4 -49 -1 -54z m4211 50 c0 -78 -31 -351 -42 -363 -9 -11 -108 -13
-569 -11 -306 2 -560 5 -563 8 -5 5 -46 346 -46 382 0 17 35 18 559 20 307 2
582 1 610 0 50 -4 51 -4 51 -36z m-2716 -54 c2 -4 -4 -9 -15 -9 -11 -1 -17 2
-14 8 7 11 22 12 29 1z m-1492 -69 c-7 -65 -12 -67 -12 -5 0 29 4 52 9 52 5 0
6 -21 3 -47z m1451 27 c-3 -11 -7 -20 -9 -20 -2 0 -4 9 -4 20 0 11 4 20 9 20
5 0 7 -9 4 -20z m33 -5 c2 -21 -1 -24 -12 -14 -11 9 -11 15 -3 25 15 18 14 18
15 -11z m-762 -13 c3 -5 -1 -9 -9 -9 -8 0 -12 4 -9 9 3 4 7 8 9 8 2 0 6 -4 9
-8z m53 -24 c-3 -8 -6 -5 -6 6 -1 11 2 17 5 13 3 -3 4 -12 1 -19z m-467 -18
c0 -5 -2 -10 -4 -10 -3 0 -8 5 -11 10 -3 6 -1 10 4 10 6 0 11 -4 11 -10z m323
-30 c-3 -11 -9 -17 -15 -14 -5 3 -4 12 3 20 16 19 18 18 12 -6z m333 -13 c2
-7 -4 -69 -16 -137 -11 -68 -19 -125 -17 -126 1 -1 47 34 102 78 166 133 245
191 252 185 3 -4 12 -36 18 -72 l13 -66 -113 -92 c-62 -51 -155 -127 -208
-171 -53 -43 -99 -87 -103 -98 -10 -33 -73 -382 -69 -386 2 -2 23 14 47 35 45
41 410 332 464 370 l31 22 11 -50 c22 -93 26 -87 -137 -216 -81 -65 -199 -158
-261 -208 -159 -127 -183 -144 -202 -145 -22 0 -22 13 -3 115 8 44 31 181 51
305 20 124 40 245 45 270 22 122 59 353 59 375 0 27 27 35 36 12z m-959 -119
c-2 -13 -4 -3 -4 22 0 25 2 35 4 23 2 -13 2 -33 0 -45z m1735 -23 c6 -11 -8 0
-29 24 -24 27 -42 40 -47 33 -3 -6 4 -18 16 -26 12 -9 18 -16 12 -16 -6 0 -18
8 -27 18 -13 14 -14 21 -5 30 9 9 19 6 41 -16 16 -15 33 -36 39 -47z m-1358
49 c3 -8 2 -12 -4 -9 -6 3 -10 10 -10 16 0 14 7 11 14 -7z m-354 -158 c0 -19
3 -41 6 -50 3 -9 2 -16 -4 -16 -6 0 -12 23 -14 50 -1 28 0 50 5 50 4 0 7 -15
7 -34z m4318 -138 c2 -46 5 -95 8 -110 l6 -28 -736 0 -736 0 0 110 0 110 728
0 728 0 2 -82z m-4306 -50 c-10 -22 -11 -21 -11 12 -1 26 2 31 11 22 8 -8 8
-17 0 -34z m11 -75 c-3 -6 6 -13 19 -16 21 -4 20 -4 -4 -6 -26 -1 -28 2 -27
37 0 28 2 32 8 17 5 -11 6 -25 4 -32z m4310 -135 c4 -18 9 -62 12 -98 3 -36
12 -130 20 -210 18 -180 42 -455 51 -577 8 -106 -5 -158 -38 -150 -11 3 -38
-1 -62 -9 -61 -21 -1434 -16 -1459 5 -12 10 -21 11 -30 3 -10 -9 -17 -1 -30
34 -18 48 -17 58 17 504 8 102 20 263 27 358 l12 172 738 0 737 0 5 -32z
m-2908 -316 c3 -26 8 -62 11 -79 l5 -33 -123 0 -123 0 48 41 c73 63 161 127
169 122 4 -2 10 -25 13 -51z m1190 -334 c-3 -24 -10 -108 -15 -188 -8 -116 -7
-159 5 -212 13 -62 54 -150 76 -164 5 -3 9 -8 9 -12 0 -4 -742 -7 -1650 -7
-907 0 -1650 0 -1650 0 0 0 11 22 25 49 25 49 25 52 25 313 l0 263 1591 0
1590 0 -6 -42z m-3964 -307 c38 -39 38 -78 1 -114 -37 -36 -75 -35 -113 2 -33
33 -35 50 -13 92 28 54 82 63 125 20z m509 -31 c38 -38 12 -100 -42 -100 -25
0 -58 35 -58 62 0 52 62 76 100 38z"/>
<path d="M4483 6855 c-124 -35 -215 -126 -184 -184 18 -33 54 -36 103 -8 85
49 135 59 234 47 191 -24 179 -24 203 1 27 29 28 80 2 103 -50 45 -260 69
-358 41z"/>
<path d="M5655 6863 c-65 -9 -135 -34 -145 -53 -16 -31 -11 -75 12 -99 18 -21
27 -23 72 -17 28 3 62 8 76 11 14 3 59 7 101 8 71 1 82 -1 150 -36 41 -20 81
-37 90 -37 20 0 59 37 59 56 0 54 -111 144 -200 163 -49 11 -152 12 -215 4z"/>
<path d="M4610 6580 c-42 -10 -85 -56 -99 -107 -28 -101 64 -208 162 -188 123
26 175 160 95 250 -16 19 -37 36 -46 39 -42 11 -80 14 -112 6z"/>
<path d="M5675 6583 c-50 -10 -78 -29 -100 -68 -94 -159 107 -312 235 -180 33
34 35 41 35 100 0 59 -2 66 -34 99 -19 20 -42 38 -50 40 -37 10 -67 13 -86 9z"/>
<path d="M5079 6177 c-88 -47 -148 -167 -135 -270 21 -154 146 -247 292 -217
39 8 67 21 86 40 32 33 34 49 12 92 -16 30 -17 30 -67 23 -111 -17 -146 -4
-167 60 -14 42 0 106 40 185 35 70 37 86 11 100 -25 13 -21 14 -72 -13z"/>
<path d="M5550 5550 c-156 -89 -233 -113 -365 -113 -113 0 -195 20 -310 78
-100 50 -135 55 -165 25 -41 -41 -26 -78 57 -136 230 -165 535 -174 784 -23
115 69 140 118 85 166 -33 28 -42 28 -86 3z"/>
<path d="M4208 4278 c-3 -7 0 -26 7 -42 9 -22 13 -25 18 -12 3 8 2 18 -4 21
-5 4 -7 10 -5 14 3 4 1 13 -3 20 -7 10 -9 10 -13 -1z"/>
<path d="M5965 4414 c-25 -13 -26 -14 -5 -9 14 4 31 7 38 7 6 1 12 5 12 10 0
11 -9 9 -45 -8z"/>
<path d="M8195 3921 c3 -5 1 -12 -5 -16 -5 -3 -10 -11 -10 -17 0 -6 9 -3 20 7
19 17 19 35 -1 35 -6 0 -8 -4 -4 -9z"/>
<path d="M7195 3471 c-3 -6 0 -19 7 -31 13 -20 19 -20 478 -18 l465 3 0 25 0
25 -472 3 c-297 1 -474 -1 -478 -7z"/>
<path d="M7204 3324 c3 -9 6 -22 6 -30 0 -12 70 -14 465 -14 l465 0 0 30 0 30
-471 0 c-426 0 -471 -2 -465 -16z"/>
<path d="M7071 2607 c-22 -27 -24 -71 -3 -90 17 -15 38 -17 173 -15 153 3 153
3 168 29 12 22 12 29 0 55 l-14 29 -156 3 c-123 2 -159 0 -168 -11z"/>
<path d="M7533 2614 c-20 -9 -36 -70 -23 -94 10 -19 20 -20 165 -20 153 0 154
0 174 26 16 21 18 30 10 52 -6 15 -16 30 -22 34 -13 8 -284 10 -304 2z"/>
<path d="M7976 2598 c-21 -30 -20 -61 2 -81 15 -14 42 -17 148 -17 146 0 174
10 174 59 0 53 -22 61 -173 61 -129 0 -137 -1 -151 -22z"/>
<path d="M7062 2398 c-15 -15 -16 -221 -2 -249 10 -18 23 -19 168 -19 86 0
162 4 169 8 13 8 21 241 9 261 -10 16 -328 15 -344 -1z"/>
<path d="M7518 2399 c-16 -9 -18 -26 -18 -129 0 -108 2 -120 19 -130 11 -5 84
-10 165 -10 118 0 147 3 160 16 24 23 23 249 0 258 -26 10 -308 6 -326 -5z"/>
<path d="M7970 2391 c-7 -14 -5 -92 6 -263 8 -133 13 -255 10 -271 -4 -21 0
-34 19 -53 23 -23 30 -24 153 -24 92 0 133 4 147 14 17 12 18 24 11 162 -4 82
-11 210 -15 285 -4 91 -11 142 -20 153 -11 13 -36 16 -157 16 -132 0 -144 -2
-154 -19z"/>
<path d="M7060 2031 c-14 -28 -13 -224 2 -239 17 -17 322 -17 336 1 12 14 19
202 8 235 -7 22 -10 22 -171 22 -152 0 -165 -1 -175 -19z"/>
<path d="M7509 2034 c-9 -11 -12 -47 -11 -122 1 -88 4 -109 19 -119 12 -9 62
-13 170 -13 140 0 153 2 163 19 14 28 13 224 -2 239 -8 8 -60 12 -169 12 -130
0 -159 -3 -170 -16z"/>
<path d="M5223 1958 c-68 -22 -111 -102 -92 -172 19 -68 80 -116 147 -116 25
0 112 46 112 60 0 3 -14 15 -31 26 -29 21 -32 21 -59 6 -27 -16 -30 -16 -57 4
-33 25 -39 46 -23 85 16 37 51 47 86 24 25 -16 27 -16 55 11 33 32 31 37 -21
64 -43 22 -68 23 -117 8z"/>
<path d="M5946 1960 c-130 -40 -137 -227 -11 -276 62 -23 109 -12 157 36 34
34 38 43 38 89 0 29 -7 65 -15 81 -30 57 -107 89 -169 70z m79 -95 c33 -32 32
-68 -1 -94 -33 -26 -42 -26 -71 1 -29 27 -30 71 -3 98 26 26 46 25 75 -5z"/>
<path d="M3890 1914 c-37 -84 -90 -221 -90 -233 0 -6 17 -11 40 -11 37 0 41 3
47 30 5 29 8 30 59 30 49 0 55 -2 69 -30 13 -26 21 -30 56 -30 33 0 40 3 35
15 -3 8 -31 74 -63 145 l-58 130 -37 0 c-34 0 -38 -3 -58 -46z m70 -83 c14
-27 13 -31 -10 -31 -15 0 -20 7 -20 25 0 30 15 33 30 6z"/>
<path d="M4150 1814 l0 -145 38 3 c35 3 37 5 40 41 3 35 5 37 37 37 24 0 45 9
70 31 30 27 35 37 35 76 0 36 -6 50 -29 74 -28 27 -34 29 -110 29 l-81 0 0
-146z m124 70 c32 -12 11 -64 -26 -64 -14 0 -18 8 -18 35 0 36 10 42 44 29z"/>
<path d="M4440 1815 l0 -145 35 0 c34 0 35 1 35 40 0 39 1 40 35 40 74 0 111
40 109 118 -1 38 -6 50 -30 69 -25 19 -40 23 -106 23 l-78 0 0 -145z m125 40
c0 -21 -5 -31 -19 -33 -22 -5 -36 13 -36 46 0 20 4 23 28 20 23 -2 27 -8 27
-33z"/>
<path d="M4720 1815 l0 -145 100 0 100 0 0 40 0 40 -60 0 -60 0 0 105 0 105
-40 0 -40 0 0 -145z"/>
<path d="M4980 1815 l0 -145 40 0 40 0 0 145 0 145 -40 0 -40 0 0 -145z"/>
<path d="M5430 1948 c0 -7 -3 -23 -6 -35 -6 -21 -3 -23 30 -23 l36 0 0 -110 0
-110 40 0 40 0 0 110 0 110 35 0 c33 0 35 2 35 35 l0 35 -105 0 c-77 0 -105
-3 -105 -12z"/>
<path d="M5700 1815 l0 -145 40 0 40 0 0 145 0 145 -40 0 -40 0 0 -145z"/>
<path d="M6200 1815 l0 -145 40 0 39 0 3 65 3 66 55 -65 c47 -56 60 -66 88
-66 l32 0 0 145 0 145 -40 0 -39 0 -3 -67 -3 -68 -53 68 c-48 59 -58 67 -88
67 l-34 0 0 -145z"/>
<path d="M7375 7998 c-13 -48 -31 -70 -72 -95 -41 -23 -49 -43 -18 -43 23 0
77 -52 92 -89 17 -39 18 -38 55 29 11 19 34 38 58 48 22 9 40 20 40 24 0 3
-20 18 -44 32 -33 19 -49 37 -62 71 -21 49 -39 58 -49 23z"/>
<path d="M3029 7861 c-37 -37 -37 -65 1 -103 26 -25 36 -29 63 -24 41 8 56 24
64 68 4 30 1 41 -20 62 -35 35 -71 33 -108 -3z"/>
<path d="M7514 7707 c5 -36 2 -65 -9 -97 -15 -41 -14 -46 1 -57 13 -10 22 -9
45 2 15 8 50 15 77 15 59 0 73 13 79 75 5 41 3 47 -30 80 -33 33 -39 35 -102
35 l-67 0 6 -53z"/>
<path d="M2829 7679 c-37 -39 -37 -63 0 -100 36 -36 73 -37 106 -4 39 38 27
102 -22 124 -37 17 -53 13 -84 -20z"/>
<path d="M2651 7474 c-42 -53 -35 -91 20 -119 36 -19 61 -13 89 22 27 34 25
69 -5 98 -33 34 -77 33 -104 -1z"/>
<path d="M7650 7343 c-57 -29 -97 -76 -107 -125 -4 -20 -16 -30 -52 -43 -169
-63 -289 -194 -322 -353 -29 -141 20 -284 134 -387 67 -61 272 -171 374 -201
124 -36 233 -3 233 71 0 53 -29 70 -198 122 -268 81 -374 169 -375 308 -1 141
88 252 233 291 93 25 104 34 110 86 7 56 24 78 61 78 39 0 59 -24 59 -73 0
-23 4 -47 8 -54 4 -7 41 -26 81 -42 123 -50 199 -144 185 -229 -6 -36 -3 -44
21 -66 37 -34 84 -34 124 0 41 34 49 81 26 153 -37 121 -113 212 -228 271 -57
30 -65 38 -75 75 -22 81 -89 132 -186 142 -42 4 -60 0 -106 -24z"/>
<path d="M2513 7280 c-20 -8 -80 -106 -71 -116 5 -4 190 15 196 21 7 7 -38 74
-61 90 -24 17 -33 18 -64 5z"/>
<path d="M2489 7025 c-191 -48 -354 -179 -439 -349 -138 -281 -70 -596 173
-803 59 -50 169 -105 253 -127 88 -23 242 -21 339 4 217 56 382 217 455 445
18 55 22 92 22 175 -2 125 -18 197 -72 305 -81 164 -217 285 -380 336 -86 27
-272 35 -351 14z m283 -173 c247 -69 400 -348 333 -607 -45 -173 -202 -315
-383 -346 -204 -36 -431 83 -519 272 -44 93 -55 151 -47 239 29 320 314 525
616 442z"/>
<path d="M2539 6745 c-67 -21 -138 -72 -181 -130 -84 -109 -102 -282 -43 -399
37 -73 107 -145 170 -176 43 -22 64 -25 155 -25 94 0 111 3 165 28 111 52 197
175 198 284 0 57 -16 73 -69 73 -48 0 -52 -5 -80 -86 -40 -119 -135 -177 -252
-153 -170 34 -231 260 -106 386 45 44 92 63 161 63 50 0 85 -12 135 -46 44
-31 87 -26 118 13 36 47 4 95 -97 144 -76 38 -198 49 -274 24z"/>
<path d="M2615 6458 c-30 -16 -45 -39 -45 -69 0 -42 10 -60 43 -74 38 -16 79
-3 101 30 23 36 20 63 -13 96 -31 31 -53 35 -86 17z"/>
<path d="M7603 6783 c-50 -25 -66 -74 -37 -118 17 -26 52 -42 193 -87 265 -84
365 -171 366 -318 0 -123 -76 -227 -199 -270 -30 -11 -64 -20 -75 -20 -32 0
-51 -28 -51 -75 0 -34 -5 -47 -22 -59 -29 -21 -41 -20 -69 3 -16 13 -24 33
-28 67 -7 53 0 48 -111 78 -94 26 -172 91 -205 171 l-16 36 41 16 c42 17 52
42 30 83 -14 26 -73 60 -104 60 -115 0 -167 -115 -116 -254 31 -80 131 -185
222 -231 39 -19 81 -35 93 -35 17 0 24 -7 29 -32 14 -71 84 -136 163 -153 43
-9 133 18 173 51 35 30 51 56 59 98 5 24 16 32 68 51 155 56 280 214 299 378
16 140 -59 285 -195 376 -97 64 -284 168 -334 185 -60 20 -132 20 -174 -1z"/>
<path d="M8400 6193 c-34 -12 -50 -37 -50 -75 0 -75 64 -101 121 -50 28 25 31
32 25 65 -10 52 -50 77 -96 60z"/>
<path d="M1946 5919 c-19 -62 -13 -93 20 -108 34 -15 86 -14 109 3 22 16 25
10 -54 104 -24 28 -47 52 -52 52 -4 0 -15 -23 -23 -51z"/>
<path d="M8430 5917 c-20 -10 -26 -21 -28 -59 -5 -77 38 -105 112 -74 43 18
53 54 29 104 -15 31 -24 37 -53 40 -19 1 -46 -4 -60 -11z"/>
<path d="M6953 5737 c-8 -30 -26 -56 -57 -85 -26 -24 -46 -44 -46 -47 0 -16
68 -35 125 -35 59 0 82 7 124 37 2 1 -16 24 -41 51 -25 26 -51 65 -57 85 -17
49 -34 47 -48 -6z"/>
<path d="M1916 5658 c-21 -30 -21 -102 1 -119 25 -22 102 -18 119 5 19 27 18
100 -2 120 -25 25 -99 21 -118 -6z"/>
<path d="M8470 5647 c-20 -10 -26 -21 -28 -59 -4 -62 25 -92 81 -85 55 7 67
22 67 78 0 38 -4 51 -22 63 -27 19 -64 20 -98 3z"/>
<path d="M7266 5498 c-8 -18 -26 -45 -40 -60 -14 -15 -26 -30 -26 -34 0 -3 14
-22 30 -41 17 -19 33 -48 37 -64 8 -40 27 -36 48 11 10 23 33 49 52 61 l34 21
-37 32 c-21 18 -43 48 -49 66 -15 45 -31 48 -49 8z"/>
<path d="M2944 5388 c-9 -18 -34 -52 -57 -75 -40 -42 -40 -43 -22 -63 15 -17
30 -20 92 -20 67 0 91 7 132 37 3 2 -14 22 -36 46 -22 23 -48 57 -57 75 -9 17
-21 32 -26 32 -5 0 -17 -15 -26 -32z"/>
<path d="M1900 5390 c-29 -29 -28 -103 2 -124 27 -19 64 -20 98 -3 19 10 27
23 32 57 5 40 3 48 -18 68 -32 28 -87 29 -114 2z"/>
<path d="M6896 5394 c-9 -8 -16 -22 -16 -30 0 -22 28 -84 62 -137 30 -47 31
-47 50 -30 30 27 68 109 70 150 1 24 -4 40 -17 49 -27 20 -129 18 -149 -2z"/>
<path d="M8478 5369 c-21 -12 -26 -107 -6 -127 7 -7 33 -12 58 -12 57 0 80 21
80 74 0 61 -14 76 -68 76 -26 0 -55 -5 -64 -11z"/>
<path d="M2912 5143 c-13 -10 -29 -41 -37 -73 -25 -94 -29 -90 86 -90 l101 0
-6 38 c-21 111 -32 129 -88 138 -24 4 -40 1 -56 -13z"/>
<path d="M1903 5122 c-19 -12 -30 -54 -26 -94 4 -29 11 -39 34 -48 59 -25 119
11 119 69 0 56 -23 81 -73 81 -23 0 -47 -4 -54 -8z"/>
<path d="M8480 5085 c-7 -8 -15 -35 -17 -59 -4 -36 -1 -48 17 -66 19 -19 28
-21 68 -15 26 4 50 12 54 18 12 19 9 112 -4 125 -17 17 -103 15 -118 -3z"/>
<path d="M2863 4853 c-23 -9 -14 -37 26 -86 22 -26 43 -56 46 -67 13 -41 34
-29 84 47 28 42 51 82 51 88 0 7 -10 15 -22 19 -27 7 -168 7 -185 -1z"/>
<path d="M1930 4843 c-26 -9 -40 -35 -40 -73 0 -53 23 -80 68 -80 58 0 82 22
82 76 0 67 -46 100 -110 77z"/>
<path d="M3268 4800 c-10 -25 -30 -48 -52 -61 -20 -11 -36 -25 -36 -29 0 -4
16 -17 34 -28 19 -12 44 -39 56 -61 11 -23 22 -41 24 -41 2 0 14 21 26 46 15
31 34 51 56 62 19 8 34 19 34 23 0 4 -16 17 -36 28 -23 14 -41 35 -51 61 -9
22 -21 40 -27 40 -6 0 -19 -18 -28 -40z"/>
<path d="M8472 4797 c-6 -7 -14 -31 -17 -53 -10 -58 18 -89 76 -88 31 1 48 7
61 24 22 28 24 93 2 114 -19 20 -107 22 -122 3z"/>
<path d="M8456 4497 c-12 -9 -20 -31 -23 -64 -5 -49 -4 -52 25 -67 70 -36 122
-7 122 68 0 26 -6 48 -15 56 -23 19 -87 23 -109 7z"/>
<path d="M8430 4180 c11 -16 34 -57 49 -92 l28 -62 16 31 c9 16 17 49 19 73 3
55 -25 80 -89 80 l-44 0 21 -30z"/>
<path d="M2574 3666 c-110 -36 -211 -115 -264 -209 -38 -68 -64 -177 -56 -242
5 -44 1 -58 -33 -125 -52 -102 -66 -158 -66 -270 0 -112 14 -167 68 -274 56
-108 149 -202 248 -249 114 -54 160 -61 333 -52 83 4 175 7 204 7 31 -1 67 5
83 13 l29 16 0 228 c0 204 -2 231 -17 249 -16 17 -34 21 -141 25 -145 6 -157
0 -170 -78 l-8 -50 -39 4 c-94 8 -164 78 -173 173 -5 50 -4 51 19 45 13 -4 56
-10 96 -13 194 -18 367 77 447 245 28 60 31 75 31 161 0 86 -3 101 -32 163
-96 203 -339 304 -559 233z m291 -150 c219 -98 224 -382 8 -488 -61 -30 -76
-33 -153 -33 -47 0 -93 4 -103 7 -17 7 -17 10 4 46 l22 38 71 0 c50 -1 82 5
110 18 100 50 101 177 3 250 -41 30 -163 30 -203 0 -46 -34 -63 -65 -77 -139
-9 -48 -23 -84 -44 -113 l-32 -43 -25 38 c-39 56 -59 128 -52 179 19 138 125
241 276 267 48 8 146 -5 195 -27z m-105 -261 c7 -8 10 -22 6 -30 -9 -25 -86
-17 -86 9 0 34 57 49 80 21z m-362 -278 l53 -53 -7 -55 c-11 -93 33 -199 109
-266 70 -61 196 -89 278 -62 49 17 69 37 75 81 6 37 7 38 50 38 l44 0 0 -140
0 -140 -77 -2 c-195 -6 -269 -2 -323 16 -68 23 -157 84 -199 137 -74 91 -120
245 -106 349 7 53 36 150 45 150 3 0 29 -24 58 -53z"/>
</g>
</svg>
